<?xml version="1.0" standalone="no"?>
<!DOCTYPE svg PUBLIC "-//W3C//DTD SVG 20010904//EN"
 "http://www.w3.org/TR/2001/REC-SVG-20010904/DTD/svg10.dtd">
<svg version="1.0" xmlns="http://www.w3.org/2000/svg"
 width="256.000000pt" height="256.000000pt" viewBox="0 0 256.000000 256.000000"
 preserveAspectRatio="xMidYMid meet">
<metadata>
Created by potrace 1.14, written by Peter Selinger 2001-2017
</metadata>
<g transform="translate(0.000000,256.000000) scale(0.100000,-0.100000)"
fill="#000000" stroke="none">
<path d="M545 2232 c30 -57 82 -114 345 -377 170 -171 310 -313 310 -317 0 -8
-117 -121 -131 -126 -5 -2 -9 19 -9 47 0 55 3 58 81 66 19 2 37 4 42 4 4 1 7
6 7 11 0 12 -149 13 -169 1 -9 -6 -11 -16 -6 -32 5 -13 9 -51 11 -85 l3 -61
-160 -159 c-89 -87 -165 -169 -169 -181 -6 -14 -15 -20 -24 -17 -8 3 -23 1
-32 -4 -12 -7 -30 -5 -58 8 -35 15 -47 15 -82 5 -37 -11 -154 -64 -154 -70 0
-1 27 -30 61 -64 l61 -63 -23 -25 c-74 -78 -353 -354 -394 -389 -44 -37 -48
-45 -53 -93 l-4 -53 53 7 c59 8 93 29 121 75 10 17 22 30 27 30 5 0 13 9 16
20 4 11 11 18 16 14 6 -3 13 2 17 12 3 11 74 86 158 168 l152 149 51 -49 c28
-27 51 -54 51 -61 0 -16 19 -17 55 -3 21 8 24 12 14 28 -9 14 -8 25 4 48 8 16
20 48 26 71 10 37 9 48 -8 81 -13 25 -16 43 -10 53 5 8 9 24 9 37 0 12 6 22
14 22 7 0 117 104 244 230 127 127 233 230 235 230 2 0 3 -89 2 -197 0 -109 3
-206 7 -216 6 -12 4 -22 -7 -33 -8 -8 -15 -20 -15 -25 0 -5 -8 -9 -19 -9 -25
0 -71 -48 -78 -81 -3 -16 -13 -29 -25 -32 -16 -5 -18 -9 -9 -25 9 -17 21 -20
68 -20 32 0 63 0 68 -1 11 -1 12 -353 1 -396 -7 -27 4 -59 33 -95 l21 -25 23
28 c22 28 22 32 20 255 -1 159 1 229 9 233 6 4 30 6 52 3 60 -5 79 2 65 27 -6
11 -12 30 -14 41 -7 34 -32 64 -68 81 -19 10 -38 25 -42 34 -9 24 -10 382 0
412 6 20 28 1 227 -198 120 -122 226 -221 234 -221 8 0 14 -10 14 -22 0 -13 4
-29 9 -37 6 -8 2 -29 -10 -56 -17 -38 -17 -47 -5 -86 7 -24 19 -56 26 -71 10
-21 10 -31 1 -42 -9 -11 -9 -16 0 -22 21 -12 69 -14 69 -2 0 6 23 33 51 61
l51 49 157 -156 c87 -86 156 -156 154 -156 -1 0 20 -22 47 -49 28 -27 50 -53
50 -58 1 -18 48 -41 98 -48 l53 -7 -2 48 c-2 40 -8 54 -34 79 -50 47 -387 380
-414 408 l-23 26 61 62 c63 65 71 79 46 79 -9 0 -35 10 -58 22 -81 41 -117 47
-164 27 -22 -9 -43 -15 -46 -13 -5 6 -32 12 -54 13 -7 1 -13 7 -13 13 0 7 -64
77 -142 156 -130 130 -141 145 -124 155 10 7 31 22 46 35 38 30 46 28 48 -13
4 -54 19 -86 37 -79 18 7 18 4 0 47 -14 34 -15 143 -1 166 3 5 0 14 -8 20 -10
9 -17 2 -30 -31 -19 -49 -46 -83 -94 -117 l-33 -23 -82 78 c-45 44 -90 89
-101 102 l-18 24 296 296 c163 163 306 310 318 325 26 32 79 129 74 134 -2 2
-30 -10 -62 -27 -65 -34 -110 -74 -429 -391 -122 -121 -223 -219 -225 -219 -3
0 -6 109 -7 243 -1 133 -3 242 -3 242 -1 0 -3 20 -5 45 -4 55 -17 99 -30 101
-5 0 -15 -17 -23 -38 -10 -28 -14 -111 -15 -326 l-1 -288 -231 229 c-331 330
-372 368 -436 401 -31 17 -60 31 -63 31 -4 0 9 -31 29 -68z"/>
<path d="M1922 1537 c-19 -6 -45 -26 -60 -45 -22 -29 -27 -45 -27 -99 0 -61 2
-66 33 -94 28 -25 41 -30 75 -28 48 3 97 27 97 47 0 8 -3 12 -7 10 -5 -2 -25
-12 -45 -22 -63 -32 -115 3 -123 84 -8 83 62 158 122 131 31 -14 59 3 33 19
-19 12 -55 11 -98 -3z"/>
<path d="M430 1525 c0 -11 11 -15 39 -15 22 0 41 -5 43 -12 3 -7 3 -57 2 -110
-4 -91 -3 -98 18 -112 28 -20 64 -20 72 -1 4 11 -2 15 -20 15 -31 0 -41 25
-38 94 1 28 2 68 3 88 1 36 2 37 43 40 23 2 43 9 46 16 3 9 -22 12 -102 12
-88 0 -106 -3 -106 -15z"/>
<path d="M750 1514 c-76 -64 -57 -205 31 -228 74 -18 139 41 139 127 0 78 -32
119 -96 123 -35 2 -51 -3 -74 -22z m94 -10 c39 -15 57 -103 32 -153 -27 -52
-94 -54 -120 -3 -46 90 9 186 88 156z"/>
</g>
</svg>
